<?xml version="1.0" encoding="UTF-8"?>
<svg width="250px" height="70px" viewBox="0 0 250 70" version="1.1" xmlns="http://www.w3.org/2000/svg" xmlns:xlink="http://www.w3.org/1999/xlink">
    <title>Shape</title>
    <g id="Page-1" stroke="none" stroke-width="1" fill="none" fill-rule="evenodd">
        <g id="braillebuddy-case" transform="translate(-92.000000, -518.000000)" fill="#5D5D7F" fill-rule="nonzero">
            <path d="M342,518 L342,528 L337,528 L337,538 L342,538 L342,548 L337,548 L337,558 L342,558 L342,568 L337,568 L337,582 L332,582 L332,588 L322,588 L322,582 L312,582 L312,588 L302,588 L302,582 L292,582 L292,588 L282,588 L282,582 L272,582 L272,588 L262,588 L262,582 L252,582 L252,588 L242,588 L242,582 L232,582 L232,588 L222,588 L222,582 L212,582 L212,588 L202,588 L202,582 L192,582 L192,588 L182,588 L182,582 L172,582 L172,588 L162,588 L162,582 L152,582 L152,588 L142,588 L142,582 L132,582 L132,588 L122,588 L122,582 L112,582 L112,588 L102,588 L102,582 L97,582 L97,568 L92,568 L92,558 L97,558 L97,548 L92,548 L92,538 L97,538 L97,528 L92,528 L92,518 L342,518 Z M105.5,542 C104.672,542 104,542.672 104,543.5 C104,544.328 104.672,545 105.5,545 C106.328,545 107,544.328 107,543.5 C107,542.672 106.328,542 105.5,542 Z M111.5,542 C110.672,542 110,542.672 110,543.5 C110,544.328 110.672,545 111.5,545 C112.328,545 113,544.328 113,543.5 C113,542.672 112.328,542 111.5,542 Z M117.5,542 C116.672,542 116,542.672 116,543.5 C116,544.328 116.672,545 117.5,545 C118.328,545 119,544.328 119,543.5 C119,542.672 118.328,542 117.5,542 Z M123.5,542 C122.672,542 122,542.672 122,543.5 C122,544.328 122.672,545 123.5,545 C124.328,545 125,544.328 125,543.5 C125,542.672 124.328,542 123.5,542 Z M129.5,542 C128.672,542 128,542.672 128,543.5 C128,544.328 128.672,545 129.5,545 C130.328,545 131,544.328 131,543.5 C131,542.672 130.328,542 129.5,542 Z M135.5,542 C134.672,542 134,542.672 134,543.5 C134,544.328 134.672,545 135.5,545 C136.328,545 137,544.328 137,543.5 C137,542.672 136.328,542 135.5,542 Z M141.5,542 C140.672,542 140,542.672 140,543.5 C140,544.328 140.672,545 141.5,545 C142.328,545 143,544.328 143,543.5 C143,542.672 142.328,542 141.5,542 Z M147.5,542 C146.672,542 146,542.672 146,543.5 C146,544.328 146.672,545 147.5,545 C148.328,545 149,544.328 149,543.5 C149,542.672 148.328,542 147.5,542 Z M153.5,542 C152.672,542 152,542.672 152,543.5 C152,544.328 152.672,545 153.5,545 C154.328,545 155,544.328 155,543.5 C155,542.672 154.328,542 153.5,542 Z M159.5,542 C158.672,542 158,542.672 158,543.5 C158,544.328 158.672,545 159.5,545 C160.328,545 161,544.328 161,543.5 C161,542.672 160.328,542 159.5,542 Z M165.5,542 C164.672,542 164,542.672 164,543.5 C164,544.328 164.672,545 165.5,545 C166.328,545 167,544.328 167,543.5 C167,542.672 166.328,542 165.5,542 Z M111.5,536 C110.672,536 110,536.672 110,537.5 C110,538.328 110.672,539 111.5,539 C112.328,539 113,538.328 113,537.5 C113,536.672 112.328,536 111.5,536 Z M141.5,536 C140.672,536 140,536.672 140,537.5 C140,538.328 140.672,539 141.5,539 C142.328,539 143,538.328 143,537.5 C143,536.672 142.328,536 141.5,536 Z M123.5,536 C122.672,536 122,536.672 122,537.5 C122,538.328 122.672,539 123.5,539 C124.328,539 125,538.328 125,537.5 C125,536.672 124.328,536 123.5,536 Z M117.5,536 C116.672,536 116,536.672 116,537.5 C116,538.328 116.672,539 117.5,539 C118.328,539 119,538.328 119,537.5 C119,536.672 118.328,536 117.5,536 Z M129.5,536 C128.672,536 128,536.672 128,537.5 C128,538.328 128.672,539 129.5,539 C130.328,539 131,538.328 131,537.5 C131,536.672 130.328,536 129.5,536 Z M105.5,536 C104.672,536 104,536.672 104,537.5 C104,538.328 104.672,539 105.5,539 C106.328,539 107,538.328 107,537.5 C107,536.672 106.328,536 105.5,536 Z M135.5,536 C134.672,536 134,536.672 134,537.5 C134,538.328 134.672,539 135.5,539 C136.328,539 137,538.328 137,537.5 C137,536.672 136.328,536 135.5,536 Z M159.5,536 C158.672,536 158,536.672 158,537.5 C158,538.328 158.672,539 159.5,539 C160.328,539 161,538.328 161,537.5 C161,536.672 160.328,536 159.5,536 Z M147.5,536 C146.672,536 146,536.672 146,537.5 C146,538.328 146.672,539 147.5,539 C148.328,539 149,538.328 149,537.5 C149,536.672 148.328,536 147.5,536 Z M165.5,536 C164.672,536 164,536.672 164,537.5 C164,538.328 164.672,539 165.5,539 C166.328,539 167,538.328 167,537.5 C167,536.672 166.328,536 165.5,536 Z M153.5,536 C152.672,536 152,536.672 152,537.5 C152,538.328 152.672,539 153.5,539 C154.328,539 155,538.328 155,537.5 C155,536.672 154.328,536 153.5,536 Z M105.5,530 C104.672,530 104,530.672 104,531.5 C104,532.328 104.672,533 105.5,533 C106.328,533 107,532.328 107,531.5 C107,530.672 106.328,530 105.5,530 Z M141.5,530 C140.672,530 140,530.672 140,531.5 C140,532.328 140.672,533 141.5,533 C142.328,533 143,532.328 143,531.5 C143,530.672 142.328,530 141.5,530 Z M123.5,530 C122.672,530 122,530.672 122,531.5 C122,532.328 122.672,533 123.5,533 C124.328,533 125,532.328 125,531.5 C125,530.672 124.328,530 123.5,530 Z M147.5,530 C146.672,530 146,530.672 146,531.5 C146,532.328 146.672,533 147.5,533 C148.328,533 149,532.328 149,531.5 C149,530.672 148.328,530 147.5,530 Z M129.5,530 C128.672,530 128,530.672 128,531.5 C128,532.328 128.672,533 129.5,533 C130.328,533 131,532.328 131,531.5 C131,530.672 130.328,530 129.5,530 Z M153.5,530 C152.672,530 152,530.672 152,531.5 C152,532.328 152.672,533 153.5,533 C154.328,533 155,532.328 155,531.5 C155,530.672 154.328,530 153.5,530 Z M117.5,530 C116.672,530 116,530.672 116,531.5 C116,532.328 116.672,533 117.5,533 C118.328,533 119,532.328 119,531.5 C119,530.672 118.328,530 117.5,530 Z M159.5,530 C158.672,530 158,530.672 158,531.5 C158,532.328 158.672,533 159.5,533 C160.328,533 161,532.328 161,531.5 C161,530.672 160.328,530 159.5,530 Z M135.5,530 C134.672,530 134,530.672 134,531.5 C134,532.328 134.672,533 135.5,533 C136.328,533 137,532.328 137,531.5 C137,530.672 136.328,530 135.5,530 Z M165.5,530 C164.672,530 164,530.672 164,531.5 C164,532.328 164.672,533 165.5,533 C166.328,533 167,532.328 167,531.5 C167,530.672 166.328,530 165.5,530 Z M111.5,530 C110.672,530 110,530.672 110,531.5 C110,532.328 110.672,533 111.5,533 C112.328,533 113,532.328 113,531.5 C113,530.672 112.328,530 111.5,530 Z M105.5,524 C104.672,524 104,524.672 104,525.5 C104,526.328 104.672,527 105.5,527 C106.328,527 107,526.328 107,525.5 C107,524.672 106.328,524 105.5,524 Z M111.5,524 C110.672,524 110,524.672 110,525.5 C110,526.328 110.672,527 111.5,527 C112.328,527 113,526.328 113,525.5 C113,524.672 112.328,524 111.5,524 Z M117.5,524 C116.672,524 116,524.672 116,525.5 C116,526.328 116.672,527 117.5,527 C118.328,527 119,526.328 119,525.5 C119,524.672 118.328,524 117.5,524 Z M123.5,524 C122.672,524 122,524.672 122,525.5 C122,526.328 122.672,527 123.5,527 C124.328,527 125,526.328 125,525.5 C125,524.672 124.328,524 123.5,524 Z M129.5,524 C128.672,524 128,524.672 128,525.5 C128,526.328 128.672,527 129.5,527 C130.328,527 131,526.328 131,525.5 C131,524.672 130.328,524 129.5,524 Z M135.5,524 C134.672,524 134,524.672 134,525.5 C134,526.328 134.672,527 135.5,527 C136.328,527 137,526.328 137,525.5 C137,524.672 136.328,524 135.5,524 Z M141.5,524 C140.672,524 140,524.672 140,525.5 C140,526.328 140.672,527 141.5,527 C142.328,527 143,526.328 143,525.5 C143,524.672 142.328,524 141.5,524 Z M147.5,524 C146.672,524 146,524.672 146,525.5 C146,526.328 146.672,527 147.5,527 C148.328,527 149,526.328 149,525.5 C149,524.672 148.328,524 147.5,524 Z M153.5,524 C152.672,524 152,524.672 152,525.5 C152,526.328 152.672,527 153.5,527 C154.328,527 155,526.328 155,525.5 C155,524.672 154.328,524 153.5,524 Z M159.5,524 C158.672,524 158,524.672 158,525.5 C158,526.328 158.672,527 159.5,527 C160.328,527 161,526.328 161,525.5 C161,524.672 160.328,524 159.5,524 Z M165.5,524 C164.672,524 164,524.672 164,525.5 C164,526.328 164.672,527 165.5,527 C166.328,527 167,526.328 167,525.5 C167,524.672 166.328,524 165.5,524 Z" id="Shape"></path>
        </g>
    </g>
</svg>