<?xml version="1.0" encoding="UTF-8"?>
<svg width="250px" height="105px" viewBox="0 0 250 105" version="1.1" xmlns="http://www.w3.org/2000/svg" xmlns:xlink="http://www.w3.org/1999/xlink">
    <title>Shape</title>
    <g id="Page-1" stroke="none" stroke-width="1" fill="none" fill-rule="evenodd">
        <g id="braillebuddy-case" transform="translate(-92.000000, -133.000000)" fill="#9C9CAD" fill-rule="nonzero">
            <path d="M102,133 L102,138 L112,138 L112,133 L122,133 L122,138 L132,138 L132,133 L142,133 L142,138 L152,138 L152,133 L162,133 L162,138 L172,138 L172,133 L182,133 L182,138 L192,138 L192,133 L202,133 L202,138 L212,138 L212,133 L222,133 L222,138 L232,138 L232,133 L242,133 L242,138 L252,138 L252,133 L262,133 L262,138 L272,138 L272,133 L282,133 L282,138 L292,138 L292,133 L302,133 L302,138 L312,138 L312,133 L322,133 L322,138 L332,138 L332,133 L342,133 L342,138 L337,138 L337,150 L342,150 L342,160 L337,160 L337,170 L342,170 L342,180 L337,180 L337,190 L342,190 L342,200 L337,200 L337,210 L342,210 L342,220 L337,220 L337,233 L342,233 L342,238 L332,238 L332,233 L322,233 L322,238 L312,238 L312,233 L302,233 L302,238 L292,238 L292,233 L282,233 L282,238 L272,238 L272,233 L262,233 L262,238 L252,238 L252,233 L242,233 L242,238 L232,238 L232,233 L222,233 L222,238 L212,238 L212,233 L202,233 L202,238 L192,238 L192,233 L182,233 L182,238 L172,238 L172,233 L162,233 L162,238 L152,238 L152,233 L142,233 L142,238 L132,238 L132,233 L122,233 L122,238 L112,238 L112,233 L102,233 L102,238 L92,238 L92,233 L97,233 L97,220 L92,220 L92,210 L97,210 L97,200 L92,200 L92,190 L97,190 L97,180 L92,180 L92,170 L97,170 L97,160 L92,160 L92,150 L97,150 L97,138 L92,138 L92,133 L102,133 Z M329.5,216.25 L316.5,216.25 L316.5,229.25 L329.5,229.25 L329.5,216.25 Z M307,216.25 L294,216.25 L294,229.25 L307,229.25 L307,216.25 Z M284.5,216.25 L271.5,216.25 L271.5,229.25 L284.5,229.25 L284.5,216.25 Z M262,216.25 L249,216.25 L249,229.25 L262,229.25 L262,216.25 Z M239.5,216.25 L226.5,216.25 L226.5,229.25 L239.5,229.25 L239.5,216.25 Z M217,216.25 L204,216.25 L204,229.25 L217,229.25 L217,216.25 Z M139.5,216.25 L126.5,216.25 L126.5,229.25 L139.5,229.25 L139.5,216.25 Z M194.5,216.25 L181.5,216.25 L181.5,229.25 L194.5,229.25 L194.5,216.25 Z M325.5,146 C323.843,146 322.5,147.343 322.5,149 C322.5,150.657 323.843,152 325.5,152 C327.157,152 328.5,150.657 328.5,149 C328.5,147.343 327.157,146 325.5,146 Z M303,146 C301.343,146 300,147.343 300,149 C300,150.657 301.343,152 303,152 C304.657,152 306,150.657 306,149 C306,147.343 304.657,146 303,146 Z M190.5,146 C188.843,146 187.5,147.343 187.5,149 C187.5,150.657 188.843,152 190.5,152 C192.157,152 193.5,150.657 193.5,149 C193.5,147.343 192.157,146 190.5,146 Z M213,146 C211.343,146 210,147.343 210,149 C210,150.657 211.343,152 213,152 C214.657,152 216,150.657 216,149 C216,147.343 214.657,146 213,146 Z M235.5,146 C233.843,146 232.5,147.343 232.5,149 C232.5,150.657 233.843,152 235.5,152 C237.157,152 238.5,150.657 238.5,149 C238.5,147.343 237.157,146 235.5,146 Z M258,146 C256.343,146 255,147.343 255,149 C255,150.657 256.343,152 258,152 C259.657,152 261,150.657 261,149 C261,147.343 259.657,146 258,146 Z M280.5,146 C278.843,146 277.5,147.343 277.5,149 C277.5,150.657 278.843,152 280.5,152 C282.157,152 283.5,150.657 283.5,149 C283.5,147.343 282.157,146 280.5,146 Z" id="Shape"></path>
        </g>
    </g>
</svg>