<?xml version="1.0" encoding="UTF-8"?>
<svg width="250px" height="80px" viewBox="0 0 250 80" version="1.1" xmlns="http://www.w3.org/2000/svg" xmlns:xlink="http://www.w3.org/1999/xlink">
    <title>Shape</title>
    <g id="Page-1" stroke="none" stroke-width="1" fill="none" fill-rule="evenodd">
        <g id="braillebuddy-case" transform="translate(-92.000000, -266.000000)" fill="#5D5D7F" fill-rule="nonzero">
            <path d="M112,266 L112,272 L122,272 L122,266 L132,266 L132,272 L142,272 L142,266 L152,266 L152,272 L162,272 L162,266 L172,266 L172,272 L182,272 L182,266 L192,266 L192,272 L202,272 L202,266 L212,266 L212,272 L222,272 L222,266 L232,266 L232,272 L242,272 L242,266 L252,266 L252,272 L262,272 L262,266 L272,266 L272,272 L282,272 L282,266 L292,266 L292,272 L302,272 L302,266 L312,266 L312,272 L322,272 L322,266 L332,266 L332,272 L337,272 L337,286 L342,286 L342,296 L337,296 L337,306 L342,306 L342,316 L337,316 L337,326 L342,326 L342,336 L337,336 L337,346 L97,346 L97,336 L92,336 L92,326 L97,326 L97,316 L92,316 L92,306 L97,306 L97,296 L92,296 L92,286 L97,286 L97,272 L102,272 L102,266 L112,266 Z M150,336 L140,336 L140,341 L150,341 L150,336 Z M198,336 L188,336 L188,341 L198,341 L198,336 Z M246,336 L236,336 L236,341 L246,341 L246,336 Z M294,336 L284,336 L284,341 L294,341 L294,336 Z" id="Shape"></path>
        </g>
    </g>
</svg>