<?xml version="1.0" encoding="UTF-8"?>
<svg width="250px" height="105px" viewBox="0 0 250 105" version="1.1" xmlns="http://www.w3.org/2000/svg" xmlns:xlink="http://www.w3.org/1999/xlink">
    <title>Shape</title>
    <g id="Page-1" stroke="none" stroke-width="1" fill="none" fill-rule="evenodd">
        <g id="braillebuddy-case" transform="translate(-92.000000, 0.000000)" fill="#9C9CAD" fill-rule="nonzero">
            <path d="M102,0 L102,5 L112,5 L112,0 L122,0 L122,5 L132,5 L132,0 L142,0 L142,5 L152,5 L152,0 L162,0 L162,5 L172,5 L172,0 L182,0 L182,5 L192,5 L192,0 L202,0 L202,5 L212,5 L212,0 L222,0 L222,5 L232,5 L232,0 L242,0 L242,5 L252,5 L252,0 L262,0 L262,5 L272,5 L272,0 L282,0 L282,5 L292,5 L292,0 L302,0 L302,5 L312,5 L312,0 L322,0 L322,5 L332,5 L332,0 L342,0 L342,5 L337,5 L337,17 L342,17 L342,27 L337,27 L337,37 L342,37 L342,47 L337,47 L337,57 L342,57 L342,67 L337,67 L337,77 L342,77 L342,87 L337,87 L337,100 L342,100 L342,105 L332,105 L332,100 L322,100 L322,105 L312,105 L312,100 L302,100 L302,105 L292,105 L292,100 L282,100 L282,105 L272,105 L272,100 L262,100 L262,105 L252,105 L252,100 L242,100 L242,105 L232,105 L232,100 L222,100 L222,105 L212,105 L212,100 L202,100 L202,105 L192,105 L192,100 L182,100 L182,105 L172,105 L172,100 L162,100 L162,105 L152,105 L152,100 L142,100 L142,105 L132,105 L132,100 L122,100 L122,105 L112,105 L112,100 L102,100 L102,105 L92,105 L92,100 L97,100 L97,87 L92,87 L92,77 L97,77 L97,67 L92,67 L92,57 L97,57 L97,47 L92,47 L92,37 L97,37 L97,27 L92,27 L92,17 L97,17 L97,5 L92,5 L92,0 L102,0 Z M233,83.75 C229.686,83.75 227,86.436 227,89.75 C227,93.064 229.686,95.75 233,95.75 C236.314,95.75 239,93.064 239,89.75 C239,86.436 236.314,83.75 233,83.75 Z M255.5,83.75 C252.186,83.75 249.5,86.436 249.5,89.75 C249.5,93.064 252.186,95.75 255.5,95.75 C258.814,95.75 261.5,93.064 261.5,89.75 C261.5,86.436 258.814,83.75 255.5,83.75 Z M278,83.75 C274.686,83.75 272,86.436 272,89.75 C272,93.064 274.686,95.75 278,95.75 C281.314,95.75 284,93.064 284,89.75 C284,86.436 281.314,83.75 278,83.75 Z M300.5,83.75 C297.186,83.75 294.5,86.436 294.5,89.75 C294.5,93.064 297.186,95.75 300.5,95.75 C303.814,95.75 306.5,93.064 306.5,89.75 C306.5,86.436 303.814,83.75 300.5,83.75 Z M323,83.75 C319.686,83.75 317,86.436 317,89.75 C317,93.064 319.686,95.75 323,95.75 C326.314,95.75 329,93.064 329,89.75 C329,86.436 326.314,83.75 323,83.75 Z M210.5,83.75 C207.186,83.75 204.5,86.436 204.5,89.75 C204.5,93.064 207.186,95.75 210.5,95.75 C213.814,95.75 216.5,93.064 216.5,89.75 C216.5,86.436 213.814,83.75 210.5,83.75 Z M188,83.75 C184.686,83.75 182,86.436 182,89.75 C182,93.064 184.686,95.75 188,95.75 C191.314,95.75 194,93.064 194,89.75 C194,86.436 191.314,83.75 188,83.75 Z M133,83.75 C129.6863,83.75 127,86.436 127,89.75 C127,93.064 129.6863,95.75 133,95.75 C136.3137,95.75 139,93.064 139,89.75 C139,86.436 136.3137,83.75 133,83.75 Z M330,10 L325.6,10 L315,20.6136 L315,68 C315,69.105 315.895,70 317,70 L317.5,70 C317.5,73.314 320.186,76 323.5,76 C326.814,76 329.5,73.314 329.5,70 L330,70 C331.105,70 332,69.105 332,68 L332,12 C332,10.8954 331.105,10 330,10 Z M307.5,10 L303.1,10 L292.5,20.6136 L292.5,68 C292.5,69.105 293.395,70 294.5,70 L295,70 C295,73.314 297.686,76 301,76 C304.314,76 307,73.314 307,70 L307.5,70 C308.605,70 309.5,69.105 309.5,68 L309.5,12 C309.5,10.8954 308.605,10 307.5,10 Z M285,10 L280.6,10 L270,20.6136 L270,68 C270,69.105 270.895,70 272,70 L272.5,70 C272.5,73.314 275.186,76 278.5,76 C281.814,76 284.5,73.314 284.5,70 L285,70 C286.105,70 287,69.105 287,68 L287,12 C287,10.8954 286.105,10 285,10 Z M262.5,10 L258.1,10 L247.5,20.6136 L247.5,68 C247.5,69.105 248.395,70 249.5,70 L250,70 C250,73.314 252.686,76 256,76 C259.314,76 262,73.314 262,70 L262.5,70 C263.605,70 264.5,69.105 264.5,68 L264.5,12 C264.5,10.8954 263.605,10 262.5,10 Z M240,10 L235.6,10 L225,20.6136 L225,68 C225,69.105 225.895,70 227,70 L227.5,70 C227.5,73.314 230.186,76 233.5,76 C236.814,76 239.5,73.314 239.5,70 L240,70 C241.105,70 242,69.105 242,68 L242,12 C242,10.8954 241.105,10 240,10 Z M217.5,10 L213.1,10 L202.5,20.6136 L202.5,68 C202.5,69.105 203.395,70 204.5,70 L205,70 C205,73.314 207.686,76 211,76 C214.314,76 217,73.314 217,70 L217.5,70 C218.605,70 219.5,69.105 219.5,68 L219.5,12 C219.5,10.8954 218.605,10 217.5,10 Z M195,10 L190.6,10 L180,20.6136 L180,68 C180,69.105 180.895,70 182,70 L182.5,70 C182.5,73.314 185.186,76 188.5,76 C191.814,76 194.5,73.314 194.5,70 L195,70 C196.105,70 197,69.105 197,68 L197,12 C197,10.8954 196.105,10 195,10 Z M161,10 L114,10 L103,21 L103,68 C103,69.105 103.8954,70 105,70 L127,70 C127,73.314 129.6863,76 133,76 C136.3137,76 139,73.314 139,70 L161,70 C162.1046,70 163,69.105 163,68 L163,12 C163,10.8954 162.1046,10 161,10 Z" id="Shape"></path>
        </g>
    </g>
</svg>