<?xml version="1.0" encoding="UTF-8"?>
<svg width="250px" height="105px" viewBox="0 0 250 105" version="1.1" xmlns="http://www.w3.org/2000/svg" xmlns:xlink="http://www.w3.org/1999/xlink">
    <title>Path</title>
    <g id="Page-1" stroke="none" stroke-width="1" fill="none" fill-rule="evenodd">
        <g id="braillebuddy-case" transform="translate(-92.000000, -384.000000)" fill="#9C9CAD" fill-rule="nonzero">
            <path d="M246,389 L284,389 L284,384 L294,384 L294,389 L337,389 L337,409 L342,409 L342,414.003 C342,416.763 339.76,419 337,419 L337,479 C337.552,479 338,479.672 338,480.5 C338,481.225 337.657,481.83 337.202,481.97 C337.136,481.99 337.069,482 337,482 L331,482 L331,445 C331,444.448 330.552,444 330,444 C329.448,444 329,444.448 329,445 L329,483 C329,483.552 329.448,484 330,484 L330.074,483.997 L330.125,483.992 L330.286,484 L342,484 L342,489 L92,489 L92,484 L103.714,484 L103.875,483.992 L104,484 C104.552,484 105,483.552 105,483 L105,445 C105,444.448 104.552,444 104,444 C103.448,444 103,444.448 103,445 L103,482 L97,482 C96.931,482 96.864,481.99 96.798,481.97 C96.343,481.83 96,481.225 96,480.5 C96,479.672 96.448,479 97,479 L97,419 C94.24,419 92,416.763 92,414.003 L92,409 L97,409 L97,389 L140,389 L140,384 L150,384 L150,389 L188,389 L188,384 L198,384 L198,389 L236,389 L236,384 L246,384 L246,389 Z" id="Path"></path>
        </g>
    </g>
</svg>