<?xml version="1.0" encoding="UTF-8"?>
<svg width="476px" height="638px" viewBox="0 0 476 638" version="1.1" xmlns="http://www.w3.org/2000/svg" xmlns:xlink="http://www.w3.org/1999/xlink">
    <!-- Generator: Sketch 47 (45396) - http://www.bohemiancoding.com/sketch -->
    <title>Artboard 13</title>
    <desc>Created with Sketch.</desc>
    <defs></defs>
    <g id="Page-1" stroke="none" stroke-width="1" fill="none" fill-rule="evenodd">
        <g id="Artboard-13">
            <path d="M359,297 L359,311 L364,311 L364,321 L359,321 L359,331 L364,331 L364,341 L359,341 L359,351 L364,351 L364,361 L359,361 L359,371 L119,371 L119,361 L114,361 L114,351 L119,351 L119,341 L114,341 L114,331 L119,331 L119,321 L114,321 L114,311 L119,311 L119,297 L124,297 L124,291 L134,291 L134,297 L144,297 L144,291 L154,291 L154,297 L164,297 L164,291 L174,291 L174,297 L184,297 L184,291 L194,291 L194,297 L204,297 L204,291 L214,291 L214,297 L224,297 L224,291 L234,291 L234,297 L244,297 L244,291 L254,291 L254,297 L264,297 L264,291 L274,291 L274,297 L284,297 L284,291 L294,291 L294,297 L304,297 L304,291 L314,291 L314,297 L324,297 L324,291 L334,291 L334,297 L344,297 L344,291 L354,291 L354,297 L359,297 Z M172,361 L162,361 L162,366 L172,366 L172,361 Z M210,361 L220,361 L220,366 L210,366 L210,361 Z M268,361 L258,361 L258,366 L268,366 L268,361 Z M306,361 L316,361 L316,366 L306,366 L306,361 Z" id="Shape" fill="#5D5D7F"></path>
            <path d="M359,593 L359,607 L354,607 L354,613 L344,613 L344,607 L334,607 L334,613 L324,613 L324,607 L314,607 L314,613 L304,613 L304,607 L294,607 L294,613 L284,613 L284,607 L274,607 L274,613 L264,613 L264,607 L254,607 L254,613 L244,613 L244,607 L234,607 L234,613 L224,613 L224,607 L214,607 L214,613 L204,613 L204,607 L194,607 L194,613 L184,613 L184,607 L174,607 L174,613 L164,613 L164,607 L154,607 L154,613 L144,613 L144,607 L134,607 L134,613 L124,613 L124,607 L119,607 L119,593 L114,593 L114,583 L119,583 L119,573 L114,573 L114,563 L119,563 L119,553 L114,553 L114,543 L119,543 L359,543 L364,543 L364,553 L359,553 L359,563 L364,563 L364,573 L359,573 L359,583 L364,583 L364,593 L359,593 Z M127.5,552 C128.328,552 129,551.328 129,550.5 C129,549.672 128.328,549 127.5,549 C126.672,549 126,549.672 126,550.5 C126,551.328 126.672,552 127.5,552 Z M133.5,552 C134.328,552 135,551.328 135,550.5 C135,549.672 134.328,549 133.5,549 C132.672,549 132,549.672 132,550.5 C132,551.328 132.672,552 133.5,552 Z M141,550.5 C141,551.328 140.328,552 139.5,552 C138.672,552 138,551.328 138,550.5 C138,549.672 138.672,549 139.5,549 C140.328,549 141,549.672 141,550.5 Z M145.5,552 C146.328,552 147,551.328 147,550.5 C147,549.672 146.328,549 145.5,549 C144.672,549 144,549.672 144,550.5 C144,551.328 144.672,552 145.5,552 Z M153,550.5 C153,551.328 152.328,552 151.5,552 C150.672,552 150,551.328 150,550.5 C150,549.672 150.672,549 151.5,549 C152.328,549 153,549.672 153,550.5 Z M157.5,552 C158.328,552 159,551.328 159,550.5 C159,549.672 158.328,549 157.5,549 C156.672,549 156,549.672 156,550.5 C156,551.328 156.672,552 157.5,552 Z M165,550.5 C165,551.328 164.328,552 163.5,552 C162.672,552 162,551.328 162,550.5 C162,549.672 162.672,549 163.5,549 C164.328,549 165,549.672 165,550.5 Z M169.5,552 C170.328,552 171,551.328 171,550.5 C171,549.672 170.328,549 169.5,549 C168.672,549 168,549.672 168,550.5 C168,551.328 168.672,552 169.5,552 Z M177,550.5 C177,551.328 176.328,552 175.5,552 C174.672,552 174,551.328 174,550.5 C174,549.672 174.672,549 175.5,549 C176.328,549 177,549.672 177,550.5 Z M181.5,552 C182.328,552 183,551.328 183,550.5 C183,549.672 182.328,549 181.5,549 C180.672,549 180,549.672 180,550.5 C180,551.328 180.672,552 181.5,552 Z M189,550.5 C189,551.328 188.328,552 187.5,552 C186.672,552 186,551.328 186,550.5 C186,549.672 186.672,549 187.5,549 C188.328,549 189,549.672 189,550.5 Z M127.5,558 C128.328,558 129,557.328 129,556.5 C129,555.672 128.328,555 127.5,555 C126.672,555 126,555.672 126,556.5 C126,557.328 126.672,558 127.5,558 Z M129,562.5 C129,563.328 128.328,564 127.5,564 C126.672,564 126,563.328 126,562.5 C126,561.672 126.672,561 127.5,561 C128.328,561 129,561.672 129,562.5 Z M127.5,570 C128.328,570 129,569.328 129,568.5 C129,567.672 128.328,567 127.5,567 C126.672,567 126,567.672 126,568.5 C126,569.328 126.672,570 127.5,570 Z M135,556.5 C135,557.328 134.328,558 133.5,558 C132.672,558 132,557.328 132,556.5 C132,555.672 132.672,555 133.5,555 C134.328,555 135,555.672 135,556.5 Z M133.5,564 C134.328,564 135,563.328 135,562.5 C135,561.672 134.328,561 133.5,561 C132.672,561 132,561.672 132,562.5 C132,563.328 132.672,564 133.5,564 Z M135,568.5 C135,569.328 134.328,570 133.5,570 C132.672,570 132,569.328 132,568.5 C132,567.672 132.672,567 133.5,567 C134.328,567 135,567.672 135,568.5 Z M139.5,558 C140.328,558 141,557.328 141,556.5 C141,555.672 140.328,555 139.5,555 C138.672,555 138,555.672 138,556.5 C138,557.328 138.672,558 139.5,558 Z M141,562.5 C141,563.328 140.328,564 139.5,564 C138.672,564 138,563.328 138,562.5 C138,561.672 138.672,561 139.5,561 C140.328,561 141,561.672 141,562.5 Z M139.5,570 C140.328,570 141,569.328 141,568.5 C141,567.672 140.328,567 139.5,567 C138.672,567 138,567.672 138,568.5 C138,569.328 138.672,570 139.5,570 Z M147,556.5 C147,557.328 146.328,558 145.5,558 C144.672,558 144,557.328 144,556.5 C144,555.672 144.672,555 145.5,555 C146.328,555 147,555.672 147,556.5 Z M145.5,564 C146.328,564 147,563.328 147,562.5 C147,561.672 146.328,561 145.5,561 C144.672,561 144,561.672 144,562.5 C144,563.328 144.672,564 145.5,564 Z M147,568.5 C147,569.328 146.328,570 145.5,570 C144.672,570 144,569.328 144,568.5 C144,567.672 144.672,567 145.5,567 C146.328,567 147,567.672 147,568.5 Z M151.5,558 C152.328,558 153,557.328 153,556.5 C153,555.672 152.328,555 151.5,555 C150.672,555 150,555.672 150,556.5 C150,557.328 150.672,558 151.5,558 Z M153,562.5 C153,563.328 152.328,564 151.5,564 C150.672,564 150,563.328 150,562.5 C150,561.672 150.672,561 151.5,561 C152.328,561 153,561.672 153,562.5 Z M151.5,570 C152.328,570 153,569.328 153,568.5 C153,567.672 152.328,567 151.5,567 C150.672,567 150,567.672 150,568.5 C150,569.328 150.672,570 151.5,570 Z M159,556.5 C159,557.328 158.328,558 157.5,558 C156.672,558 156,557.328 156,556.5 C156,555.672 156.672,555 157.5,555 C158.328,555 159,555.672 159,556.5 Z M157.5,564 C158.328,564 159,563.328 159,562.5 C159,561.672 158.328,561 157.5,561 C156.672,561 156,561.672 156,562.5 C156,563.328 156.672,564 157.5,564 Z M159,568.5 C159,569.328 158.328,570 157.5,570 C156.672,570 156,569.328 156,568.5 C156,567.672 156.672,567 157.5,567 C158.328,567 159,567.672 159,568.5 Z M163.5,558 C164.328,558 165,557.328 165,556.5 C165,555.672 164.328,555 163.5,555 C162.672,555 162,555.672 162,556.5 C162,557.328 162.672,558 163.5,558 Z M165,562.5 C165,563.328 164.328,564 163.5,564 C162.672,564 162,563.328 162,562.5 C162,561.672 162.672,561 163.5,561 C164.328,561 165,561.672 165,562.5 Z M163.5,570 C164.328,570 165,569.328 165,568.5 C165,567.672 164.328,567 163.5,567 C162.672,567 162,567.672 162,568.5 C162,569.328 162.672,570 163.5,570 Z M171,556.5 C171,557.328 170.328,558 169.5,558 C168.672,558 168,557.328 168,556.5 C168,555.672 168.672,555 169.5,555 C170.328,555 171,555.672 171,556.5 Z M169.5,564 C170.328,564 171,563.328 171,562.5 C171,561.672 170.328,561 169.5,561 C168.672,561 168,561.672 168,562.5 C168,563.328 168.672,564 169.5,564 Z M171,568.5 C171,569.328 170.328,570 169.5,570 C168.672,570 168,569.328 168,568.5 C168,567.672 168.672,567 169.5,567 C170.328,567 171,567.672 171,568.5 Z M175.5,558 C176.328,558 177,557.328 177,556.5 C177,555.672 176.328,555 175.5,555 C174.672,555 174,555.672 174,556.5 C174,557.328 174.672,558 175.5,558 Z M177,562.5 C177,563.328 176.328,564 175.5,564 C174.672,564 174,563.328 174,562.5 C174,561.672 174.672,561 175.5,561 C176.328,561 177,561.672 177,562.5 Z M175.5,570 C176.328,570 177,569.328 177,568.5 C177,567.672 176.328,567 175.5,567 C174.672,567 174,567.672 174,568.5 C174,569.328 174.672,570 175.5,570 Z M183,556.5 C183,557.328 182.328,558 181.5,558 C180.672,558 180,557.328 180,556.5 C180,555.672 180.672,555 181.5,555 C182.328,555 183,555.672 183,556.5 Z M181.5,564 C182.328,564 183,563.328 183,562.5 C183,561.672 182.328,561 181.5,561 C180.672,561 180,561.672 180,562.5 C180,563.328 180.672,564 181.5,564 Z M183,568.5 C183,569.328 182.328,570 181.5,570 C180.672,570 180,569.328 180,568.5 C180,567.672 180.672,567 181.5,567 C182.328,567 183,567.672 183,568.5 Z M187.5,558 C188.328,558 189,557.328 189,556.5 C189,555.672 188.328,555 187.5,555 C186.672,555 186,555.672 186,556.5 C186,557.328 186.672,558 187.5,558 Z M189,562.5 C189,563.328 188.328,564 187.5,564 C186.672,564 186,563.328 186,562.5 C186,561.672 186.672,561 187.5,561 C188.328,561 189,561.672 189,562.5 Z M187.5,570 C188.328,570 189,569.328 189,568.5 C189,567.672 188.328,567 187.5,567 C186.672,567 186,567.672 186,568.5 C186,569.328 186.672,570 187.5,570 Z" id="Shape" fill="#5D5D7F"></path>
            <path d="M28,414 L28,409 L42,409 L42,414 L52,414 L52,409 L62,409 L62,414 L72,414 L72,409 L82,409 L82,414 L92,414 L92,409 L102,409 L102,439 L97,439 L97,434 L92,434 L92,449 L102,449 L102,509 C102,511.761 99.761,514 97,514 L97,509 L82,509 L82,514 L72,514 L72,509 L62,509 L62,514 L52,514 L52,509 L42,509 L42,514 L28,514 L28,509 L22,509 L22,496 L28,496 L28,486 L22,486 L22,476 L28,476 L28,466 L22,466 L22,456 L28,456 L28,446 L22,446 L22,436 L28,436 L28,426 L22,426 L22,414 L28,414 Z" id="Shape" fill="#5D5D7F"></path>
            <path d="M384,409 L374,409 L374,439 L379,439 L379,434 L384,434 L384,449 L379,449 L374,449 L374,509.01 C374.005,511.767 376.242,514 379,514 L379,509 L384,509 L394,509 L394,514 L404,514 L404,509 L414,509 L414,514 L424,514 L424,509 L434,509 L434,514 L448,514 L448,509 L454,509 L454,496 L448,496 L448,486 L454,486 L454,476 L448,476 L448,466 L454,466 L454,456 L448,456 L448,446 L454,446 L454,436 L448,436 L448,426 L454,426 L454,414 L448,414 L448,409 L434,409 L434,414 L424,414 L424,409 L414,409 L414,414 L404,414 L404,409 L394,409 L394,414 L384,414 L384,409 Z M401,420 L401,426 L390,426 L390,420 L401,420 Z" id="Shape" fill="#5D5D7F"></path>
            <path d="M306,409 L339,409 L316,409 L316,414 L337,414 L339,414 L359,414 L359,434 L364,434 L364,439 L364,439.003 C363.998,441.763 361.76,444 359,444 L359,452 L359,454 L359,456 L359,504 C359.552,504 360,504.672 360,505.5 C360,506.225 359.657,506.83 359.202,506.97 C359.136,506.99 359.069,507 359,507 L358.714,507 L358,507 L353,507 L353,470 C353,469.448 352.552,469 352,469 C351.448,469 351,469.448 351,470 L351,508 C351,508.552 351.448,509 352,509 C352.025,509 352.05,508.999 352.074,508.997 C352.091,508.996 352.108,508.994 352.125,508.992 C352.178,508.997 352.231,509 352.286,509 L358,509 L358.714,509 L359,509 L361,509 L364,509 L364,514 L339,514 L337,514 L114,514 L114,509 L117,509 L119,509 L119.286,509 L120,509 L125.714,509 C125.769,509 125.822,508.997 125.875,508.992 C125.916,508.997 125.958,509 126,509 C126.552,509 127,508.552 127,508 L127,470 C127,469.448 126.552,469 126,469 C125.448,469 125,469.448 125,470 L125,507 L120,507 L119.286,507 L119,507 C118.931,507 118.864,506.99 118.798,506.97 C118.343,506.83 118,506.225 118,505.5 C118,504.672 118.448,504 119,504 L119,456 L119,454 L119,452 L119,444 C116.24,444 114.002,441.763 114,439.003 L114,439 L114,434 L119,434 L119,414 L162,414 L162,409 L210,409 L172,409 L172,414 L210,414 L210,409 L258,409 L220,409 L220,414 L258,414 L258,409 L306,409 Z M306,409 L306,414 L268,414 L268,409 L306,409 Z" id="Shape" fill="#9C9CAD"></path>
            <path d="M364,112 L359,112 L359,125 L364,125 L364,130 L354,130 L354,125 L344,125 L344,130 L334,130 L334,125 L324,125 L324,130 L314,130 L314,125 L304,125 L304,130 L294,130 L294,125 L284,125 L284,130 L274,130 L274,125 L264,125 L264,130 L254,130 L254,125 L244,125 L244,130 L234,130 L234,125 L224,125 L224,130 L214,130 L214,125 L204,125 L204,130 L194,130 L194,125 L184,125 L184,130 L174,130 L174,125 L164,125 L164,130 L154,130 L154,125 L144,125 L144,130 L134,130 L134,125 L124,125 L124,130 L114,130 L114,125 L119,125 L119,112 L114,112 L114,102 L119,102 L119,92 L114,92 L114,82 L119,82 L119,72 L114,72 L114,62 L119,62 L119,52 L114,52 L114,42 L119,42 L119,30 L114,30 L114,25 L124,25 L124,30 L134,30 L134,25 L144,25 L144,30 L154,30 L154,25 L164,25 L164,30 L174,30 L174,25 L184,25 L184,30 L194,30 L194,25 L204,25 L204,30 L214,30 L214,25 L224,25 L224,30 L234,30 L234,25 L244,25 L244,30 L254,30 L254,25 L264,25 L264,30 L274,30 L274,25 L284,25 L284,30 L294,30 L294,25 L304,25 L304,30 L314,30 L314,25 L324,25 L324,30 L334,30 L334,25 L344,25 L344,30 L354,30 L354,25 L364,25 L364,30 L359,30 L359,42 L364,42 L364,52 L359,52 L359,62 L364,62 L364,72 L359,72 L359,82 L364,82 L364,92 L359,92 L359,102 L364,102 L364,112 Z M351,114.75 C351,118.064 348.314,120.75 345,120.75 C341.686,120.75 339,118.064 339,114.75 C339,111.436 341.686,108.75 345,108.75 C348.314,108.75 351,111.436 351,114.75 Z M322.5,120.75 C325.814,120.75 328.5,118.064 328.5,114.75 C328.5,111.436 325.814,108.75 322.5,108.75 C319.186,108.75 316.5,111.436 316.5,114.75 C316.5,118.064 319.186,120.75 322.5,120.75 Z M306,114.75 C306,118.064 303.314,120.75 300,120.75 C296.686,120.75 294,118.064 294,114.75 C294,111.436 296.686,108.75 300,108.75 C303.314,108.75 306,111.436 306,114.75 Z M277.5,120.75 C280.814,120.75 283.5,118.064 283.5,114.75 C283.5,111.436 280.814,108.75 277.5,108.75 C274.186,108.75 271.5,111.436 271.5,114.75 C271.5,118.064 274.186,120.75 277.5,120.75 Z M261,114.75 C261,118.064 258.314,120.75 255,120.75 C251.686,120.75 249,118.064 249,114.75 C249,111.436 251.686,108.75 255,108.75 C258.314,108.75 261,111.436 261,114.75 Z M232.5,120.75 C235.814,120.75 238.5,118.064 238.5,114.75 C238.5,111.436 235.814,108.75 232.5,108.75 C229.186,108.75 226.5,111.436 226.5,114.75 C226.5,118.064 229.186,120.75 232.5,120.75 Z M216,114.75 C216,118.064 213.314,120.75 210,120.75 C206.686,120.75 204,118.064 204,114.75 C204,111.436 206.686,108.75 210,108.75 C213.314,108.75 216,111.436 216,114.75 Z M155,120.75 C158.3137,120.75 161,118.064 161,114.75 C161,111.436 158.3137,108.75 155,108.75 C151.6863,108.75 149,111.436 149,114.75 C149,118.064 151.6863,120.75 155,120.75 Z M212.6,35 L217,35 C218.105,35 219,35.8954 219,37 L219,93 C219,94.105 218.105,95 217,95 L216.5,95 C216.5,98.314 213.814,101 210.5,101 C207.186,101 204.5,98.314 204.5,95 L204,95 C202.895,95 202,94.105 202,93 L202,45.6136 L212.607,35.007 L212.6,35 Z M239.5,35 L235.1,35 L235.107,35.007 L224.5,45.6136 L224.5,93 C224.5,94.105 225.395,95 226.5,95 L227,95 C227,98.314 229.686,101 233,101 C236.314,101 239,98.314 239,95 L239.5,95 C240.605,95 241.5,94.105 241.5,93 L241.5,37 C241.5,35.8954 240.605,35 239.5,35 Z M257.6,35 L262,35 C263.105,35 264,35.8954 264,37 L264,93 C264,94.105 263.105,95 262,95 L261.5,95 C261.5,98.314 258.814,101 255.5,101 C252.186,101 249.5,98.314 249.5,95 L249,95 C247.895,95 247,94.105 247,93 L247,45.6136 L257.607,35.007 L257.6,35 Z M284.5,35 L280.1,35 L280.107,35.007 L269.5,45.6136 L269.5,93 C269.5,94.105 270.395,95 271.5,95 L272,95 C272,98.314 274.686,101 278,101 C281.314,101 284,98.314 284,95 L284.5,95 C285.605,95 286.5,94.105 286.5,93 L286.5,37 C286.5,35.8954 285.605,35 284.5,35 Z M302.6,35 L307,35 C308.105,35 309,35.8954 309,37 L309,93 C309,94.105 308.105,95 307,95 L306.5,95 C306.5,98.314 303.814,101 300.5,101 C297.186,101 294.5,98.314 294.5,95 L294,95 C292.895,95 292,94.105 292,93 L292,45.6136 L302.607,35.007 L302.6,35 Z M329.5,35 L325.1,35 L325.107,35.007 L314.5,45.6136 L314.5,93 C314.5,94.105 315.395,95 316.5,95 L317,95 C317,98.314 319.686,101 323,101 C326.314,101 329,98.314 329,95 L329.5,95 C330.605,95 331.5,94.105 331.5,93 L331.5,37 C331.5,35.8954 330.605,35 329.5,35 Z M347.6,35 L352,35 C353.105,35 354,35.8954 354,37 L354,93 C354,94.105 353.105,95 352,95 L351.5,95 C351.5,98.314 348.814,101 345.5,101 C342.186,101 339.5,98.314 339.5,95 L339,95 C337.895,95 337,94.105 337,93 L337,45.6136 L347.607,35.007 L347.6,35 Z M183,35 L136,35 L125,46 L125,93 C125,94.105 125.8954,95 127,95 L149,95 C149,98.314 151.6863,101 155,101 C158.3137,101 161,98.314 161,95 L183,95 C184.1046,95 185,94.105 185,93 L185,37 C185,35.8954 184.1046,35 183,35 Z" id="Shape" fill="#9C9CAD"></path>
            <path d="M359,245 L364,245 L364,235 L359,235 L359,225 L364,225 L364,215 L359,215 L359,205 L364,205 L364,195 L359,195 L359,185 L364,185 L364,175 L359,175 L359,163 L364,163 L364,158 L354,158 L354,163 L344,163 L344,158 L334,158 L334,163 L324,163 L324,158 L314,158 L314,163 L304,163 L304,158 L294,158 L294,163 L284,163 L284,158 L274,158 L274,163 L264,163 L264,158 L254,158 L254,163 L244,163 L244,158 L234,158 L234,163 L224,163 L224,158 L214,158 L214,163 L204,163 L204,158 L194,158 L194,163 L184,163 L184,158 L174,158 L174,163 L164,163 L164,158 L154,158 L154,163 L144,163 L144,158 L134,158 L134,163 L124,163 L124,158 L114,158 L114,163 L119,163 L119,163 L119,175 L114,175 L114,185 L119,185 L119,195 L114,195 L114,205 L119,205 L119,215 L114,215 L114,225 L119,225 L119,235 L114,235 L114,245 L119,245 L119,258 L114,258 L114,263 L124,263 L124,258 L134,258 L134,263 L144,263 L144,258 L154,258 L154,263 L164,263 L164,258 L174,258 L174,263 L184,263 L184,258 L194,258 L194,263 L204,263 L204,258 L214,258 L214,263 L224,263 L224,258 L234,258 L234,263 L244,263 L244,258 L254,258 L254,263 L264,263 L264,258 L274,258 L274,263 L284,263 L284,258 L294,258 L294,263 L304,263 L304,258 L314,258 L314,263 L324,263 L324,258 L334,258 L334,263 L344,263 L344,258 L354,258 L354,263 L364,263 L364,258 L359,258 L359,245 Z M215.5,174 C215.5,175.657 214.157,177 212.5,177 C210.843,177 209.5,175.657 209.5,174 C209.5,172.343 210.843,171 212.5,171 C214.157,171 215.5,172.343 215.5,174 Z M235,177 C236.657,177 238,175.657 238,174 C238,172.343 236.657,171 235,171 C233.343,171 232,172.343 232,174 C232,175.657 233.343,177 235,177 Z M260.5,174 C260.5,175.657 259.157,177 257.5,177 C255.843,177 254.5,175.657 254.5,174 C254.5,172.343 255.843,171 257.5,171 C259.157,171 260.5,172.343 260.5,174 Z M280,177 C281.657,177 283,175.657 283,174 C283,172.343 281.657,171 280,171 C278.343,171 277,172.343 277,174 C277,175.657 278.343,177 280,177 Z M305.5,174 C305.5,175.657 304.157,177 302.5,177 C300.843,177 299.5,175.657 299.5,174 C299.5,172.343 300.843,171 302.5,171 C304.157,171 305.5,172.343 305.5,174 Z M325,177 C326.657,177 328,175.657 328,174 C328,172.343 326.657,171 325,171 C323.343,171 322,172.343 322,174 C322,175.657 323.343,177 325,177 Z M350.5,174 C350.5,175.657 349.157,177 347.5,177 C345.843,177 344.5,175.657 344.5,174 C344.5,172.343 345.843,171 347.5,171 C349.157,171 350.5,172.343 350.5,174 Z M203.5,241.25 L216.5,241.25 L216.5,254.25 L203.5,254.25 L203.5,241.25 Z M161.5,241.25 L148.5,241.25 L148.5,254.25 L161.5,254.25 L161.5,241.25 Z M226,241.25 L239,241.25 L239,254.25 L226,254.25 L226,241.25 Z M261.5,241.25 L248.5,241.25 L248.5,254.25 L261.5,254.25 L261.5,241.25 Z M271,241.25 L284,241.25 L284,254.25 L271,254.25 L271,241.25 Z M306.5,241.25 L293.5,241.25 L293.5,254.25 L306.5,254.25 L306.5,241.25 Z M316,241.25 L329,241.25 L329,254.25 L316,254.25 L316,241.25 Z M351.5,241.25 L338.5,241.25 L338.5,254.25 L351.5,254.25 L351.5,241.25 Z" id="Shape" fill="#9C9CAD"></path>
        </g>
    </g>
</svg>